<?xml version="1.0" standalone="no"?>
<!DOCTYPE svg PUBLIC "-//W3C//DTD SVG 20010904//EN"
 "http://www.w3.org/TR/2001/REC-SVG-20010904/DTD/svg10.dtd">
<svg version="1.0" xmlns="http://www.w3.org/2000/svg"
 width="316.000000pt" height="316.000000pt" viewBox="0 0 316.000000 316.000000"
 preserveAspectRatio="xMidYMid meet">
<metadata>
Created by potrace 1.11, written by Peter Selinger 2001-2013
</metadata>
<g transform="translate(0.000000,316.000000) scale(0.100000,-0.100000)"
fill="#000000" stroke="none">
<path d="M1460 2999 c-301 -28 -595 -156 -825 -359 -440 -388 -604 -1010 -412
-1565 218 -629 843 -1035 1499 -975 197 18 338 57 513 141 728 349 1031 1239
667 1961 -177 352 -488 617 -862 736 -120 38 -178 49 -315 62 -121 11 -141 11
-265 -1z m305 -40 c260 -31 497 -127 700 -284 352 -273 556 -690 555 -1134 -1
-379 -156 -739 -434 -1009 -197 -191 -432 -316 -705 -374 -152 -33 -410 -33
-562 0 -273 58 -508 183 -706 375 -167 162 -292 361 -363 576 -87 266 -92 568
-14 836 28 98 97 256 146 337 85 140 237 307 373 409 280 211 655 311 1010
268z"/>
<path d="M1580 2750 c0 -143 1 -150 20 -150 19 0 20 7 20 150 0 143 -1 150
-20 150 -19 0 -20 -7 -20 -150z"/>
<path d="M1453 2849 c3 -22 8 -43 11 -46 12 -13 16 6 10 46 -9 54 -28 54 -21
0z"/>
<path d="M1726 2849 c-6 -40 -2 -59 10 -46 3 3 8 24 11 46 7 54 -12 54 -21 0z"/>
<path d="M1316 2833 c8 -45 12 -53 25 -53 8 0 6 21 -8 73 -9 34 -24 17 -17
-20z"/>
<path d="M1867 2853 c-14 -52 -16 -73 -8 -73 13 0 17 8 25 53 7 37 -8 54 -17
20z"/>
<path d="M1180 2830 c0 -34 22 -92 31 -83 6 6 5 22 -2 44 -13 39 -29 60 -29
39z"/>
<path d="M2003 2820 c-20 -50 -24 -68 -14 -74 6 -4 15 12 21 34 13 48 7 77 -7
40z"/>
<path d="M1048 2784 c-7 -7 24 -84 35 -84 11 0 9 13 -8 54 -16 37 -18 40 -27
30z"/>
<path d="M2125 2754 c-17 -41 -19 -54 -7 -54 12 0 41 79 32 85 -5 3 -16 -11
-25 -31z"/>
<path d="M921 2721 c-11 -7 1 -35 59 -135 40 -70 77 -129 82 -132 5 -4 14 -2
20 4 6 6 -12 48 -56 123 -82 144 -87 151 -105 140z"/>
<path d="M2227 2672 c-98 -164 -119 -204 -109 -214 6 -6 15 -8 20 -4 9 5 152
248 152 258 0 3 -7 8 -15 11 -9 4 -25 -12 -48 -51z"/>
<path d="M806 2642 c-7 -12 45 -83 56 -76 5 3 5 11 0 17 -5 7 -18 25 -29 40
-12 15 -24 24 -27 19z"/>
<path d="M2357 2610 c-15 -21 -23 -41 -19 -44 5 -3 18 7 29 22 30 42 34 50 26
55 -5 3 -21 -12 -36 -33z"/>
<path d="M697 2553 c-3 -5 9 -25 28 -43 19 -19 35 -30 35 -24 -1 17 -57 77
-63 67z"/>
<path d="M2465 2524 c-36 -47 -27 -53 14 -10 18 19 28 36 23 40 -5 3 -22 -10
-37 -30z"/>
<path d="M596 2452 c-6 -10 62 -68 70 -60 2 2 -11 19 -30 37 -19 18 -36 28
-40 23z"/>
<path d="M2560 2425 c-19 -19 -30 -35 -24 -35 17 1 77 57 67 63 -5 3 -25 -9
-43 -28z"/>
<path d="M507 2343 c-3 -5 12 -21 33 -36 21 -15 41 -23 44 -19 3 5 -7 18 -22
29 -42 30 -50 34 -55 26z"/>
<path d="M2647 2323 c-20 -14 -34 -30 -31 -35 3 -5 11 -5 17 0 7 5 25 18 40
29 41 31 17 37 -26 6z"/>
<path d="M427 2225 c-6 -14 14 -28 181 -125 50 -28 77 -39 84 -32 6 6 8 15 4
20 -5 9 -248 152 -258 152 -3 0 -8 -7 -11 -15z"/>
<path d="M2636 2171 c-136 -80 -145 -86 -129 -102 8 -8 31 0 85 31 167 97 187
111 181 125 -3 8 -8 15 -12 15 -3 0 -59 -31 -125 -69z"/>
<path d="M1491 2141 c-11 -7 -5 -57 33 -272 25 -145 48 -274 51 -285 5 -24
-20 -41 -39 -25 -7 6 -48 -6 -118 -37 -106 -46 -108 -47 -102 -77 5 -30 5 -30
-255 -173 -191 -105 -259 -147 -254 -157 3 -8 7 -15 10 -15 2 0 118 62 256
139 139 76 307 162 373 191 83 36 121 57 120 68 0 8 5 17 12 19 7 3 12 -4 12
-15 0 -15 5 -19 19 -15 13 3 19 13 18 29 -2 23 30 39 503 250 278 124 508 228
512 232 4 4 4 13 -1 20 -5 9 -128 -41 -469 -193 -254 -113 -467 -205 -473
-205 -7 0 -27 -10 -46 -21 -19 -12 -35 -20 -37 -18 -2 2 -25 128 -51 279 -27
151 -51 278 -54 282 -3 4 -12 3 -20 -1z"/>
<path d="M365 2100 c-3 -5 11 -16 31 -25 41 -17 54 -19 54 -7 0 12 -79 41 -85
32z"/>
<path d="M2788 2092 c-35 -16 -50 -32 -29 -32 22 0 81 32 76 40 -3 6 -7 10 -8
9 -1 0 -19 -8 -39 -17z"/>
<path d="M316 1961 c18 -16 78 -31 87 -22 6 6 -5 13 -29 20 -48 13 -72 14 -58
2z"/>
<path d="M2821 1958 c-21 -6 -30 -13 -24 -19 6 -6 22 -5 44 2 71 24 54 39 -20
17z"/>
<path d="M280 1831 c0 -10 10 -13 63 -25 24 -6 38 6 20 17 -19 11 -83 17 -83
8z"/>
<path d="M2866 1831 c-16 -3 -31 -12 -34 -19 -3 -9 4 -11 25 -7 53 13 63 16
63 26 0 10 -10 10 -54 0z"/>
<path d="M260 1693 c0 -11 79 -27 88 -18 10 9 -6 17 -47 22 -24 3 -41 2 -41
-4z"/>
<path d="M2868 1693 c-32 -8 -20 -26 13 -19 17 3 38 6 45 6 8 0 14 5 14 10 0
10 -40 12 -72 3z"/>
<path d="M250 1550 c0 -19 7 -20 150 -20 143 0 150 1 150 20 0 19 -7 20 -150
20 -143 0 -150 -1 -150 -20z"/>
<path d="M2650 1550 c0 -19 7 -20 150 -20 143 0 150 1 150 20 0 19 -7 20 -150
20 -143 0 -150 -1 -150 -20z"/>
<path d="M288 1423 c-33 -5 -37 -23 -5 -23 33 0 67 11 67 21 0 9 -12 9 -62 2z"/>
<path d="M2850 1422 c0 -11 33 -22 68 -22 12 0 22 5 22 10 0 6 -6 10 -14 10
-7 0 -28 3 -45 6 -18 4 -31 2 -31 -4z"/>
<path d="M322 1290 c-35 -8 -49 -17 -40 -25 9 -9 81 10 86 23 4 13 2 13 -46 2z"/>
<path d="M2830 1291 c0 -13 8 -17 53 -25 43 -8 52 10 10 20 -16 3 -36 8 -45
11 -10 2 -18 0 -18 -6z"/>
<path d="M353 1157 c-65 -24 -51 -36 20 -16 21 5 35 14 32 20 -7 11 -11 11
-52 -4z"/>
<path d="M2796 1161 c-4 -6 12 -15 34 -21 48 -13 77 -7 40 7 -50 20 -68 24
-74 14z"/>
<path d="M392 1024 c-18 -8 -30 -18 -27 -23 6 -10 85 19 85 32 0 10 -20 7 -58
-9z"/>
<path d="M555 969 c-139 -81 -137 -80 -126 -98 7 -11 36 1 138 60 115 67 148
97 118 105 -5 2 -64 -28 -130 -67z"/>
<path d="M2505 1030 c-10 -17 0 -25 131 -100 100 -58 128 -70 135 -59 6 9 3
18 -9 27 -21 16 -240 142 -246 142 -3 0 -8 -4 -11 -10z"/>
<path d="M2750 1033 c0 -13 79 -42 85 -33 3 5 -11 16 -31 25 -41 17 -54 19
-54 8z"/>
<path d="M537 790 c-21 -15 -34 -31 -29 -34 5 -3 23 4 38 16 44 33 46 35 37
41 -5 3 -25 -7 -46 -23z"/>
<path d="M2616 812 c-7 -11 64 -63 76 -56 5 3 -4 15 -19 27 -15 11 -33 24 -40
29 -6 5 -14 5 -17 0z"/>
<path d="M621 681 c-19 -15 -30 -31 -24 -34 5 -3 25 9 43 28 41 42 29 46 -19
6z"/>
<path d="M2560 675 c18 -19 38 -31 43 -28 10 6 -50 62 -67 63 -6 0 5 -16 24
-35z"/>
<path d="M1053 638 c-5 -7 -40 -66 -78 -131 -54 -95 -65 -121 -54 -128 18 -11
23 -4 105 139 59 102 69 132 45 132 -5 0 -13 -6 -18 -12z"/>
<path d="M2116 641 c-4 -6 22 -61 58 -123 82 -143 87 -150 105 -139 11 7 -1
35 -60 137 -72 124 -90 146 -103 125z"/>
<path d="M721 586 c-18 -19 -28 -36 -23 -40 10 -6 68 62 60 70 -2 2 -19 -11
-37 -30z"/>
<path d="M2440 614 c1 -17 57 -77 63 -67 3 5 -9 25 -28 43 -19 19 -35 30 -35
24z"/>
<path d="M827 503 c-31 -43 -25 -67 6 -26 11 15 24 33 29 40 5 6 5 14 0 17 -5
3 -21 -11 -35 -31z"/>
<path d="M2337 533 c-3 -5 7 -25 23 -46 15 -21 31 -34 34 -29 3 5 -4 23 -16
38 -33 44 -35 46 -41 37z"/>
<path d="M1580 350 c0 -143 1 -150 20 -150 19 0 20 7 20 150 0 143 -1 150 -20
150 -19 0 -20 -7 -20 -150z"/>
<path d="M1058 360 c-9 -22 -12 -42 -8 -45 9 -5 40 55 40 76 0 22 -16 5 -32
-31z"/>
<path d="M2110 391 c0 -21 31 -81 40 -76 9 6 -20 85 -32 85 -5 0 -8 -4 -8 -9z"/>
<path d="M1191 329 c-13 -38 -15 -77 -2 -63 16 17 31 78 22 87 -5 5 -13 -5
-20 -24z"/>
<path d="M1987 352 c-8 -11 11 -72 26 -87 6 -7 7 4 2 30 -8 49 -20 71 -28 57z"/>
<path d="M1327 313 c-2 -5 -7 -25 -11 -45 -8 -44 10 -53 20 -10 3 15 8 35 11
45 4 17 -12 25 -20 10z"/>
<path d="M1853 303 c3 -10 8 -30 11 -45 10 -43 28 -34 20 10 -8 44 -12 52 -25
52 -6 0 -8 -8 -6 -17z"/>
<path d="M1456 278 c-9 -35 -7 -68 4 -68 6 0 10 6 10 14 0 7 3 28 6 45 7 36
-10 43 -20 9z"/>
<path d="M1724 269 c3 -17 6 -38 6 -45 0 -8 5 -14 10 -14 11 0 13 33 4 68 -10
34 -27 27 -20 -9z"/>
</g>
</svg>
